<svg xmlns="http://www.w3.org/2000/svg" width="2560" height="510" viewBox="0 0 2560 510" version="1.1"><path d="M 784 80.794 C 777.724 83.888, 775.940 85.426, 772.741 90.500 C 769.885 95.030, 769.588 96.251, 769.586 103.500 C 769.583 112.898, 770.783 115.702, 777.431 121.830 C 783.310 127.249, 785.443 128, 794.952 128 C 802.113 128, 803.185 127.725, 807.637 124.750 C 810.312 122.963, 813.962 119.312, 815.750 116.637 C 818.760 112.133, 819 111.166, 819 103.537 C 819 96.039, 818.742 94.950, 816.129 91.400 C 812.024 85.825, 808.055 82.338, 803.782 80.553 C 798.792 78.469, 788.460 78.594, 784 80.794 M 1581.272 378.503 C 1576.313 381.020, 1571.936 385.455, 1568.938 391 C 1566.994 394.594, 1567.174 407.715, 1569.219 411.500 C 1571.418 415.571, 1578.864 422.645, 1582.315 423.942 C 1583.863 424.524, 1588.838 425, 1593.369 425 C 1600.798 425, 1602.072 424.706, 1606.318 422.013 C 1608.952 420.343, 1612.343 416.952, 1614.013 414.318 C 1616.714 410.059, 1617 408.809, 1617 401.264 C 1617 391.997, 1615.352 387.460, 1610.342 382.932 C 1604.721 377.853, 1601.798 376.656, 1594.012 376.246 C 1587.409 375.898, 1585.867 376.171, 1581.272 378.503" stroke="none" fill="#ec2c04" fill-rule="evenodd"/><path d="M 207.461 161.250 C 207.199 161.938, 207.100 203.675, 207.242 254 L 207.500 345.500 250.298 345.761 C 288.913 345.996, 293.996 345.838, 302.308 344.140 C 330.719 338.336, 354.828 319.628, 367.566 293.500 C 373.475 281.381, 376.064 271.045, 376.708 257 C 378.413 219.795, 358.079 185.704, 324.500 169.471 C 307.138 161.077, 298.352 160, 247.245 160 C 216.720 160, 207.831 160.279, 207.461 161.250 M 405.463 161.243 C 405.200 161.935, 405.100 203.675, 405.242 254 L 405.500 345.500 478 345.500 L 550.500 345.500 550.500 322 L 550.500 298.500 501.750 298.240 L 453 297.981 453 287.490 L 453 277 490.300 277 C 517.978 277, 527.910 276.690, 528.800 275.800 C 530.068 274.532, 530.603 233.735, 529.393 230.582 C 528.854 229.178, 524.521 229, 490.858 229 L 452.930 229 453.215 218.750 L 453.500 208.500 502 208 L 550.500 207.500 550.500 184 L 550.500 160.500 478.221 160.243 C 420.928 160.040, 405.843 160.247, 405.463 161.243 M 628.706 161.472 C 618.385 163.730, 608.325 169.486, 599.980 177.909 C 591.300 186.670, 587.751 192.745, 584.978 203.585 C 581.390 217.615, 582.823 231.465, 589.237 244.745 C 593.665 253.912, 604.982 265.305, 614.603 270.281 C 625.885 276.116, 631.320 276.968, 657.350 276.985 L 680.200 277 683.600 280.400 C 688.091 284.891, 688.254 289.564, 684.083 294.234 L 681.166 297.500 632.333 298 L 583.500 298.500 583.500 322 L 583.500 345.500 633.304 345.759 C 689.133 346.050, 690.676 345.907, 703.355 339.244 C 716.690 332.237, 727.896 319.130, 732.633 305 C 735.486 296.492, 735.255 277.684, 732.188 268.810 C 726.251 251.628, 711.914 237.338, 695.072 231.816 C 689.288 229.919, 685.431 229.591, 662.902 229.081 C 635.245 228.453, 635.329 228.471, 632.346 222.701 C 630.228 218.607, 631.338 213.735, 635.111 210.560 L 638.153 208 684.995 208 C 710.758 208, 732.548 207.727, 733.418 207.393 C 734.798 206.863, 735 203.802, 735 183.393 L 735 160 684.750 160.102 C 648.238 160.177, 632.916 160.551, 628.706 161.472 M 773 253.018 L 773 346.036 796.750 345.768 L 820.500 345.500 820.755 252.750 L 821.010 160 797.005 160 L 773 160 773 253.018 M 927.918 160.973 C 917.240 162.318, 909.184 164.864, 897.500 170.589 C 875.106 181.561, 858.775 200.558, 851.013 224.666 C 843.455 248.137, 845.125 271.138, 856.018 293.638 C 868.261 318.926, 889.602 336.313, 917 343.324 C 925.123 345.402, 927.540 345.499, 971.500 345.499 L 1017.500 345.500 1017.500 289 L 1017.500 232.500 971 232.500 L 924.500 232.500 924.229 253.498 C 923.986 272.357, 924.132 274.624, 925.670 275.748 C 926.911 276.656, 933.105 277, 948.191 277 L 969 277 969 287.500 L 969 298 952.636 298 C 933.631 298, 927.811 297.120, 919.305 292.959 C 895.194 281.165, 887.394 250.324, 902.692 227.276 C 912.857 211.963, 932.134 204.758, 950.289 209.487 C 956.894 211.207, 962.072 214.286, 966.946 219.391 C 968.842 221.376, 971.115 223, 971.998 223 C 973.796 223, 1004.500 189.784, 1004.500 187.838 C 1004.500 185.429, 990.394 174.765, 981.429 170.396 C 965.410 162.590, 944.426 158.895, 927.918 160.973 M 1058.245 252.750 L 1058.500 345.500 1082 345.500 L 1105.500 345.500 1106 291.733 L 1106.500 237.965 1110.554 243.233 C 1112.784 246.130, 1131.395 270.446, 1151.911 297.268 L 1189.214 346.036 1212.857 345.768 L 1236.500 345.500 1236.500 253 L 1236.500 160.500 1212.758 160.232 L 1189.017 159.964 1188.758 215.077 L 1188.500 270.191 1147 215.096 L 1105.500 160.001 1081.745 160 L 1057.990 160 1058.245 252.750 M 1379.852 161.443 C 1369.089 163.802, 1359.360 169.332, 1350.940 177.878 C 1336.424 192.610, 1330.869 212.092, 1335.537 231.897 C 1340.363 252.369, 1358.631 270.637, 1379.103 275.463 C 1383.813 276.573, 1391.525 276.974, 1408.350 276.985 L 1431.200 277 1434.600 280.400 C 1439.091 284.891, 1439.254 289.564, 1435.083 294.234 L 1432.166 297.500 1383.333 298 L 1334.500 298.500 1334.500 322 L 1334.500 345.500 1384.304 345.759 C 1426.086 345.977, 1435.168 345.773, 1440.691 344.492 C 1461.413 339.686, 1479.339 321.952, 1484.593 301.060 C 1486.812 292.239, 1486.136 276.693, 1483.181 268.568 C 1476.885 251.256, 1462.789 237.297, 1446.072 231.816 C 1440.288 229.919, 1436.431 229.591, 1413.902 229.081 C 1386.245 228.453, 1386.329 228.471, 1383.346 222.701 C 1381.228 218.607, 1382.338 213.735, 1386.111 210.560 L 1389.153 208 1435.995 208 C 1461.758 208, 1483.548 207.727, 1484.418 207.393 C 1485.798 206.863, 1486 203.802, 1486 183.393 L 1486 160 1435.750 160.102 C 1399.864 160.176, 1383.886 160.559, 1379.852 161.443 M 1515.451 161.266 C 1515.181 161.970, 1515.082 172.660, 1515.230 185.023 L 1515.500 207.500 1540.243 207.767 L 1564.986 208.035 1565.243 276.767 L 1565.500 345.500 1588.929 345.769 C 1607.006 345.976, 1612.543 345.748, 1613.164 344.769 C 1613.607 344.071, 1613.976 313.021, 1613.985 275.768 L 1614 208.036 1638.250 207.768 L 1662.500 207.500 1662.500 184 L 1662.500 160.500 1589.221 160.244 C 1530.445 160.038, 1515.845 160.240, 1515.451 161.266 M 1713.328 161.230 C 1712.805 161.928, 1710.971 165.650, 1709.251 169.500 C 1698.766 192.979, 1679.514 235.865, 1656.847 286.237 C 1642.557 317.992, 1631.147 344.429, 1631.492 344.987 C 1631.888 345.628, 1641.398 346, 1657.383 346 L 1682.649 346 1688.261 333.989 L 1693.873 321.977 1734.098 322.239 L 1774.324 322.500 1779.629 334 L 1784.933 345.500 1810.149 345.768 C 1824.018 345.915, 1835.705 345.690, 1836.122 345.268 C 1836.538 344.845, 1818.321 303.100, 1795.640 252.500 L 1754.402 160.500 1734.340 160.230 C 1719.029 160.023, 1714.053 160.260, 1713.328 161.230 M 1911 161.426 C 1892.978 165.224, 1878.724 172.623, 1865.785 184.895 C 1851.971 197.997, 1843.188 212.653, 1838.405 230.584 C 1835.567 241.224, 1835.776 264.645, 1838.810 276 C 1845.019 299.241, 1861.315 320.805, 1881.868 332.979 C 1891.202 338.508, 1907.353 343.647, 1919.500 344.954 C 1945.664 347.769, 1972.698 338.291, 1993.338 319.068 C 2000.124 312.748, 2002.471 309.272, 2001.082 307.599 C 2000.475 306.868, 1992.116 300.300, 1982.506 293.004 L 1965.033 279.740 1958.634 285.725 C 1941.932 301.350, 1915.764 301.337, 1898.455 285.697 C 1877.166 266.461, 1879.862 230.578, 1903.743 215.301 C 1921.974 203.639, 1944.030 205.302, 1958.871 219.459 C 1962.067 222.506, 1964.977 225, 1965.338 225 C 1966.588 225, 2002 196.890, 2002 195.898 C 2002 195.351, 1998.737 191.642, 1994.750 187.656 C 1982.790 175.701, 1970.102 168.096, 1954.297 163.410 C 1943.407 160.181, 1921.642 159.184, 1911 161.426 M 2023.468 161.232 C 2023.202 161.929, 2023.100 203.675, 2023.242 254 L 2023.500 345.500 2047 345.500 L 2070.500 345.500 2071 329 L 2071.500 312.500 2079.394 301.673 L 2087.287 290.847 2093.185 296.673 C 2096.429 299.878, 2108.402 312.282, 2119.791 324.238 L 2140.500 345.977 2195.500 345.738 L 2250.500 345.500 2251 328.953 L 2251.500 312.405 2259.466 301.700 L 2267.432 290.995 2272.782 296.247 C 2275.724 299.136, 2287.646 311.512, 2299.274 323.750 L 2320.417 346 2352.782 346 C 2380.141 346, 2385.097 345.782, 2384.823 344.588 C 2384.645 343.811, 2365.075 322.999, 2341.333 298.338 C 2317.592 273.677, 2298.057 253.108, 2297.924 252.629 C 2297.702 251.834, 2305.008 242.027, 2350.715 181.759 C 2359.084 170.725, 2365.695 161.315, 2365.406 160.849 C 2365.118 160.382, 2351.897 160, 2336.027 160 L 2307.172 160 2302.264 166.250 C 2299.565 169.688, 2287.039 186.152, 2274.428 202.837 L 2251.500 233.175 2251 196.837 L 2250.500 160.500 2227 160.500 L 2203.500 160.500 2203 250.894 L 2202.500 341.288 2178.071 315.894 C 2164.635 301.927, 2147.985 284.640, 2141.071 277.478 C 2134.157 270.315, 2125.905 261.745, 2122.734 258.433 L 2116.968 252.410 2150.982 207.455 C 2169.689 182.730, 2184.997 161.931, 2184.998 161.235 C 2185 160.238, 2178.827 160.026, 2155.839 160.235 L 2126.678 160.500 2099.089 196.709 L 2071.500 232.917 2071 196.709 L 2070.500 160.500 2047.226 160.232 C 2029.148 160.023, 2023.843 160.246, 2023.468 161.232 M 255.750 208.580 C 255.338 208.994, 255 229.283, 255 253.667 L 255 298 271.364 298 C 280.363 298, 290.151 297.548, 293.114 296.995 C 309.123 294.007, 323.253 280.651, 327.448 264.540 C 332.996 243.233, 323.394 222.745, 303.158 212.714 L 294.658 208.500 275.579 208.163 C 265.085 207.978, 256.163 208.166, 255.750 208.580 M 1723.775 254.250 C 1718.458 265.938, 1713.811 276.288, 1713.447 277.250 C 1712.830 278.882, 1714.206 279, 1733.893 279 C 1745.502 279, 1755 278.702, 1755 278.337 C 1755 277.063, 1734.626 233, 1734.036 233 C 1733.709 233, 1729.092 242.563, 1723.775 254.250 M 1728 405.500 L 1728 431 1733 431 L 1738 431 1738 405.500 L 1738 380 1733 380 L 1728 380 1728 405.500 M 1806.233 405.250 L 1806.500 430.500 1831.750 430.767 L 1857 431.034 1857 425.517 L 1857 420 1837 420 L 1817 420 1817 405.521 L 1817 391.042 1836.750 390.771 L 1856.500 390.500 1856.802 385.250 L 1857.105 380 1831.535 380 L 1805.966 380 1806.233 405.250 M 1905 405.500 L 1905 431.034 1930.750 430.767 L 1956.500 430.500 1956.500 405.500 L 1956.500 380.500 1930.750 380.233 L 1905 379.966 1905 405.500 M 2004 405.550 L 2004 431.100 2009.750 430.800 L 2015.500 430.500 2016 414.759 L 2016.500 399.018 2030 414.951 L 2043.500 430.883 2049.250 430.941 L 2055 431 2055 405.500 L 2055 380 2049.524 380 L 2044.048 380 2043.774 396.730 L 2043.500 413.461 2029.500 396.732 L 2015.500 380.003 2009.750 380.002 L 2004 380 2004 405.550 M 2103 395.500 L 2103 411 2123 411 L 2143 411 2143 415.500 L 2143 420 2123 420 L 2103 420 2103 425.500 L 2103 431 2128.500 431 L 2154 431 2154 415.500 L 2154 400 2134 400 L 2114 400 2114 395.521 L 2114 391.042 2133.750 390.771 L 2153.500 390.500 2153.802 385.250 L 2154.105 380 2128.552 380 L 2103 380 2103 395.500 M 1917 405.500 L 1917 420 1931 420 L 1945 420 1945 405.500 L 1945 391 1931 391 L 1917 391 1917 405.500" stroke="none" fill="#040404" fill-rule="evenodd"/></svg>
